<svg width="158" height="157" viewBox="0 0 158 157" fill="none" xmlns="http://www.w3.org/2000/svg">
<path fill-rule="evenodd" clip-rule="evenodd" d="M30.8048 109.562C28.6979 111.003 24.0626 116.45 18.8653 118.98C14.3354 121.23 9.2435 120.843 6.36403 119.472C-1.1157 115.958 -2.02868 117.54 3.76549 121.089C3.80059 121.124 -2.59054 129.032 5.73197 123.233C4.46774 126.396 2.85238 132.23 7.73356 124.182C23.5709 126.115 29.2949 115.677 33.0171 111.706C33.5088 111.214 31.0506 109.421 30.8048 109.562Z" fill="#654337"/>
<path fill-rule="evenodd" clip-rule="evenodd" d="M90.4668 50.5899C97.7358 42.1201 101.844 23.318 99.4565 11.6853C97.6656 2.82894 90.537 -3.39164 84.778 2.02063C75.121 11.0526 80.4588 40.2575 85.094 50.7304C86.4988 51.3981 88.2896 51.4685 90.4668 50.5899Z" fill="#BFDDE0"/>
<path fill-rule="evenodd" clip-rule="evenodd" d="M102.371 60.114C113.152 57.1971 127.128 43.9828 131.728 33.0177C135.205 24.6885 132.817 15.551 125.021 16.7459C111.958 18.7842 99.9484 45.9156 97.8765 57.1969C98.649 58.5324 100.089 59.5868 102.371 60.114Z" fill="#BFDDE0"/>
<path fill-rule="evenodd" clip-rule="evenodd" d="M152.587 111.671C150.34 111.987 146.793 111.354 144.441 110.932C144.019 108.718 144.932 104.36 145.775 104.958C148.128 106.575 158.101 110.897 152.587 111.671Z" fill="#654337"/>
<path fill-rule="evenodd" clip-rule="evenodd" d="M78.8086 40.9252C47.169 38.6409 15.8455 53.3663 10.7185 92.2358C7.27714 118.453 26.5558 142.879 50.0485 152.508C69.6784 160.556 91.6961 156.971 110.905 148.221C125.759 141.473 145.74 116.626 145.845 106.153C146.232 71.0086 115.61 43.561 78.8086 40.9252Z" fill="#F7C94F"/>
<path fill-rule="evenodd" clip-rule="evenodd" d="M51.8746 91.9898C53.5251 89.846 53.0685 95.0122 54.5786 96.9452C56.3695 99.2999 58.7574 99.4755 60.4781 98.4563C62.4095 97.2615 63.6386 94.6608 64.4461 94.3093C67.0096 93.0793 63.0415 104.361 55.4213 100.952C51.4181 99.1593 50.5051 93.8173 51.8746 91.9898Z" fill="#654337"/>
<path fill-rule="evenodd" clip-rule="evenodd" d="M21.9556 76.8426C21.78 76.5965 19.7082 72.8361 18.1982 72.6956C15.7049 72.4144 18.1631 76.9831 20.4807 77.6509C21.0778 77.8267 21.4991 77.8618 21.9556 76.8426Z" fill="#654337"/>
<path fill-rule="evenodd" clip-rule="evenodd" d="M26.4855 73.8203C26.4504 73.504 26.1344 69.2514 24.8351 68.3026C22.6579 66.7915 22.9739 71.9577 24.8 73.75C25.2916 74.2068 25.6779 74.4528 26.4855 73.8203Z" fill="#654337"/>
<path fill-rule="evenodd" clip-rule="evenodd" d="M33.2277 72.1333C33.2628 71.817 34.1407 67.5644 33.0872 66.6156C31.3665 65.1045 30.2077 70.2706 31.5772 72.063C31.8933 72.5199 32.2093 72.7659 33.2277 72.1333Z" fill="#654337"/>
<path fill-rule="evenodd" clip-rule="evenodd" d="M84.2166 88.9323C84.041 88.6863 81.9692 84.9259 80.4591 84.7853C77.9659 84.5041 80.3889 89.0729 82.7416 89.7406C83.3386 89.9163 83.7601 89.9514 84.2166 88.9323Z" fill="#654337"/>
<path fill-rule="evenodd" clip-rule="evenodd" d="M88.7465 85.9099C88.7114 85.5936 88.3954 81.3411 87.0961 80.3922C84.9189 78.881 85.2349 84.0472 87.061 85.8397C87.5526 86.2965 87.9388 86.5425 88.7465 85.9099Z" fill="#654337"/>
<path fill-rule="evenodd" clip-rule="evenodd" d="M95.4887 84.223C95.5238 83.9067 96.4017 79.6542 95.3482 78.7053C93.6275 77.1942 92.4687 82.3603 93.8382 84.1527C94.1543 84.6095 94.4703 84.8555 95.4887 84.223Z" fill="#654337"/>
<path fill-rule="evenodd" clip-rule="evenodd" d="M28.1361 71.7468C14.0546 74.4178 15.2837 90.9706 25.8536 95.434C33.1928 98.4916 42.1475 95.2583 42.6741 86.1208C43.2361 76.667 38.3198 69.8138 28.1361 71.7468Z" fill="#FCF0E0"/>
<path fill-rule="evenodd" clip-rule="evenodd" d="M32.3146 71.7467C22.3065 74.5583 23.1493 90.5841 30.6992 94.9771C33.2977 96.4882 35.6155 96.0666 37.898 94.5202C40.2156 92.9738 42.4981 90.3029 42.6738 85.8396C43.0601 77.5807 37.8278 70.2005 32.3146 71.7467Z" fill="#654337"/>
<path fill-rule="evenodd" clip-rule="evenodd" d="M36.5289 75.3666C34.0006 75.4368 34.3166 80.1462 36.1076 81.2708C36.7747 81.6573 37.3015 81.5519 37.8633 81.1654C38.4252 80.7788 38.8466 80.0759 38.987 78.9513C39.3031 76.9481 37.6526 75.3666 36.5289 75.3666Z" fill="#FEFEFE"/>
<path fill-rule="evenodd" clip-rule="evenodd" d="M89.6244 84.6095C75.5428 87.2805 76.772 103.798 87.3419 108.262C94.646 111.354 103.636 108.086 104.162 98.9482C104.724 89.5297 99.8081 82.6414 89.6244 84.6095Z" fill="#FCF0E0"/>
<path fill-rule="evenodd" clip-rule="evenodd" d="M93.7679 84.5743C83.795 87.421 84.6378 103.447 92.1877 107.84C94.7862 109.316 97.104 108.894 99.3865 107.383C101.704 105.836 103.987 103.166 104.162 98.7023C104.549 90.4434 99.3163 83.0279 93.7679 84.5743Z" fill="#654337"/>
<path fill-rule="evenodd" clip-rule="evenodd" d="M97.9819 88.2292C95.4887 88.2644 95.8047 93.0088 97.5957 94.1336C98.2278 94.485 98.7896 94.3796 99.3515 94.0282C99.9133 93.6064 100.335 92.9387 100.475 91.8141C100.791 89.7756 99.1409 88.2292 97.9819 88.2292Z" fill="#FEFEFE"/>
<path fill-rule="evenodd" clip-rule="evenodd" d="M31.2262 105.59C30.4536 99.2645 21.8151 98.7373 18.9005 103.13C17.9172 104.606 17.9524 106.083 18.6196 107.594C19.2868 109.105 20.5159 110.686 22.9038 111.073C27.855 111.952 31.5421 108.191 31.2262 105.59Z" fill="#F7A37F"/>
<path fill-rule="evenodd" clip-rule="evenodd" d="M102.336 121.406C101.564 115.08 92.9252 114.552 90.0106 118.945C89.0273 120.422 89.0626 121.898 89.7297 123.409C90.3969 124.92 91.626 126.501 94.0139 126.888C98.9652 127.767 102.652 124.006 102.336 121.406Z" fill="#F7A37F"/>
<path fill-rule="evenodd" clip-rule="evenodd" d="M97.7711 65.2099C98.333 60.9224 91.2747 55.8264 87.6225 57.7593C86.3583 58.4272 85.024 61.555 85.34 62.7498C85.656 63.9096 86.5339 65.3153 88.7462 66.2643C93.2761 68.3025 97.5604 67.0022 97.7711 65.2099Z" fill="#F5B25A"/>
<path fill-rule="evenodd" clip-rule="evenodd" d="M33.7194 59.1301C34.2461 54.8073 27.2228 49.7114 23.5708 51.6795C22.3065 52.3472 20.9722 55.4751 21.2882 56.6348C21.6043 57.8297 22.4821 59.2003 24.6945 60.1844C29.2244 62.1875 33.5086 60.8873 33.7194 59.1301Z" fill="#F5B25A"/>
<path fill-rule="evenodd" clip-rule="evenodd" d="M37.0906 49.2895C37.0555 49.2544 40.3563 49.5355 42.7092 51.2927C45.694 53.5419 47.5903 57.4078 43.6221 57.5131C40.567 57.5834 38.6356 52.4173 37.5119 50.2735C37.4066 50.0978 37.0906 49.2895 37.0906 49.2895Z" fill="#AC87C4"/>
<path fill-rule="evenodd" clip-rule="evenodd" d="M35.2996 50.344C35.2996 50.3088 37.1608 53.0501 37.2661 55.967C37.4417 59.7273 35.6157 63.6283 33.0171 60.6061C31.0506 58.2865 33.8599 53.5069 34.808 51.3281C34.8783 51.117 35.2996 50.3791 35.2996 50.344Z" fill="#AC87C4"/>
<path fill-rule="evenodd" clip-rule="evenodd" d="M33.4734 48.165C33.4734 48.1298 32.9467 51.4334 31.0504 53.6122C28.5572 56.4589 24.554 58.0404 24.7646 54.0691C24.9051 51.0116 30.2427 49.4652 32.4199 48.5164C32.6307 48.4461 33.4383 48.2001 33.4734 48.165Z" fill="#AC87C4"/>
<path fill-rule="evenodd" clip-rule="evenodd" d="M34.4569 46.478C34.492 46.5131 31.1559 46.5483 28.6627 45.0371C25.4672 43.0691 23.2196 39.379 27.1528 38.9221C30.9804 38.4651 33.5439 45.9508 34.4569 46.478Z" fill="#AC87C4"/>
<path fill-rule="evenodd" clip-rule="evenodd" d="M35.6157 46.6187C35.6157 46.6538 34.3867 43.5611 34.9135 40.7144C35.5806 36.9891 38.2144 33.5802 40.0756 37.0945C41.8664 40.5387 35.7913 45.5995 35.6157 46.6187Z" fill="#AC87C4"/>
<path fill-rule="evenodd" clip-rule="evenodd" d="M36.8799 48.1298C36.8448 48.1298 38.5655 45.2832 41.1289 43.9476C44.4649 42.2256 48.7843 42.2256 47.1338 45.8455C45.5185 49.3598 37.828 47.6377 36.8799 48.1298Z" fill="#AC87C4"/>
<path fill-rule="evenodd" clip-rule="evenodd" d="M31.472 49.0786C31.9636 50.7656 34.2111 51.9956 35.1592 51.9253C36.8096 51.8199 38.6708 50.2033 38.8112 48.5866C39.2679 43.5961 29.7866 43.5259 31.472 49.0786Z" fill="#FFE469"/>
<path fill-rule="evenodd" clip-rule="evenodd" d="M94.9268 31.2957C95.629 24.0911 87.6227 28.2732 89.0975 31.5768C80.4239 36.5673 76.526 53.9637 79.0894 56.002C79.3704 56.2129 79.7215 56.2481 80.1429 56.0723C79.7216 53.8231 79.2651 43.1041 87.6929 34.564C88.3953 33.8259 89.238 33.4042 90.1861 32.8419C91.7313 33.826 94.6458 33.9667 94.9268 31.2957Z" fill="#654337"/>
<path fill-rule="evenodd" clip-rule="evenodd" d="M53.4197 26.0943C50.6456 19.4169 45.5537 26.7973 48.4333 29.0465C43.1307 37.4812 47.9416 54.6314 51.1723 55.229C51.5234 55.2993 51.8747 55.1939 52.1556 54.8072C50.7159 53.05 45.2378 43.7719 48.5738 32.3149C48.8547 31.3661 49.4166 30.5929 49.9784 29.6439C51.8395 29.7845 54.4731 28.5544 53.4197 26.0943Z" fill="#654337"/>
<path fill-rule="evenodd" clip-rule="evenodd" d="M114.381 52.2417C143.738 82.8874 129.446 133.319 95.6643 153.844C132.325 141.824 140.367 123.303 144.827 111.003C156.661 78.1781 121.896 55.8264 114.381 52.2417Z" fill="#7D5749"/>
<path fill-rule="evenodd" clip-rule="evenodd" d="M90.9937 42.7528C104.022 52.5229 119.332 70.1653 125.794 85.4179C125.197 71.1142 116.277 53.5421 108.622 49.0437C107.92 48.6219 101.95 46.0915 90.9937 42.7528Z" fill="#7D5749"/>
<path fill-rule="evenodd" clip-rule="evenodd" d="M106.164 53.788C115.751 53.5771 130.148 45.4588 136.223 37.2701C140.859 31.0497 140.753 22.9313 134.011 22.2987C122.704 21.2795 107.077 41.4523 103.003 50.414C103.39 51.7145 104.373 52.8743 106.164 53.788Z" fill="#CAEAED"/>
<path fill-rule="evenodd" clip-rule="evenodd" d="M100.194 48.5163C108.271 43.3501 116.348 28.8707 117.261 18.714C117.963 10.9822 113.679 4.12919 107.604 7.11635C97.42 12.142 94.5405 37.481 95.7695 47.2511C96.7528 48.1649 98.1926 48.657 100.194 48.5163Z" fill="#CAEAED"/>
<path fill-rule="evenodd" clip-rule="evenodd" d="M120.597 131.879C123.055 132.335 129.376 135.498 135.029 135.85C139.981 136.131 144.335 133.811 146.372 131.422C149.357 127.907 152.482 129.875 152.728 130.578C152.939 131.07 150.621 131.176 149.322 131.879C149.287 131.914 158.171 136.693 148.444 134.62C150.832 137.01 154.624 141.719 147.004 136.237C133.73 144.179 124.389 136.869 119.508 134.69C118.876 134.409 120.316 131.808 120.597 131.879Z" fill="#654337"/>
<path fill-rule="evenodd" clip-rule="evenodd" d="M134.854 116.134C136.61 116.45 140.894 118.629 144.967 118.664C148.479 118.699 151.745 116.766 153.395 114.869C155.783 112.057 157.855 113.463 157.995 113.955C158.101 114.341 156.415 114.517 155.467 115.114C155.432 115.114 161.507 118.453 154.624 117.223C156.204 118.98 158.592 122.425 153.501 118.524C143.422 125.096 137.242 119.824 133.906 118.348C133.449 118.137 134.678 116.134 134.854 116.134Z" fill="#654337"/>
<path fill-rule="evenodd" clip-rule="evenodd" d="M87.4471 126.923C85.305 128.364 80.6697 133.776 75.4725 136.342C70.9426 138.556 65.8858 138.205 62.9712 136.834C55.4915 133.319 54.5785 134.866 60.3727 138.415C60.4429 138.451 54.0517 146.393 62.3742 140.594C61.11 143.722 59.4597 149.556 64.3758 141.508C80.1781 143.476 85.9371 133.003 89.6243 129.067C90.116 128.54 87.6578 126.747 87.4471 126.923Z" fill="#654337"/>
</svg>
