<svg width="150" height="158" viewBox="0 0 150 158" fill="none" xmlns="http://www.w3.org/2000/svg">
<path fill-rule="evenodd" clip-rule="evenodd" d="M14.3569 139.582C16.5732 139.107 19.71 137.307 21.7559 136.153C21.4149 133.946 19.0964 130.177 18.4826 131.026C16.8118 133.301 8.93562 140.77 14.3569 139.582Z" fill="#654337"/>
<path fill-rule="evenodd" clip-rule="evenodd" d="M57.8301 49.132C64.888 40.8815 68.8091 22.581 66.4223 11.3086C64.6151 2.71861 57.6254 -3.29103 52.0336 1.97164C42.6571 10.7994 48.0102 39.1158 52.5791 49.2678C53.9771 49.9469 55.716 49.9469 57.8301 49.132Z" fill="#BFDDE0"/>
<path fill-rule="evenodd" clip-rule="evenodd" d="M41.7362 59.6913C40.5428 48.9283 29.9048 33.5139 20.051 27.5041C12.5156 22.8864 3.37788 23.8372 3.34375 31.4766C3.34375 44.3107 27.6885 59.9289 38.2243 63.5958C39.6564 63.0526 40.8839 61.8303 41.7362 59.6913Z" fill="#BFDDE0"/>
<path fill-rule="evenodd" clip-rule="evenodd" d="M142.662 77.0751C151.527 109.67 130.967 137.036 101.269 149.734C63.2853 165.997 27.3478 149.157 19.301 135.983C7.33325 116.358 11.9703 68.0097 50.1242 48.317C83.2999 31.2389 130.012 30.7636 142.662 77.0751Z" fill="#F7A37F"/>
<path fill-rule="evenodd" clip-rule="evenodd" d="M93.7676 82.6774C94.5177 80.5724 97.45 83.9675 99.6322 83.2885C102.053 82.5416 102.667 78.2296 103.928 79.2142C105.292 80.2668 103.928 83.9337 100.689 85.2917C96.9725 86.8535 93.2561 84.1713 93.7676 82.6774Z" fill="#654337"/>
<path fill-rule="evenodd" clip-rule="evenodd" d="M103.144 18.4727C104.337 6.58933 91.2101 13.4477 93.5969 18.9481C79.3787 27.1647 73.0028 55.8886 77.2307 59.216C77.6739 59.5895 78.2536 59.6573 78.9696 59.3518C78.2536 55.6509 77.5376 37.9615 91.3125 23.8372C92.4376 22.615 93.8698 21.9359 95.4382 20.9852C97.9613 22.6149 102.735 22.8526 103.144 18.4727Z" fill="#654337"/>
<path fill-rule="evenodd" clip-rule="evenodd" d="M130.489 31.3748C136.934 24.4484 125.375 22.5472 124.25 27.1307C111.395 25.5349 93.6312 40.542 94.6541 44.6503C94.7565 45.0917 95.0973 45.3973 95.677 45.5331C97.0067 42.8848 105.053 31.4088 120.465 29.0999C121.761 28.8962 122.988 29.1339 124.42 29.2697C125.239 31.5106 128.103 33.9213 130.489 31.3748Z" fill="#654337"/>
<path fill-rule="evenodd" clip-rule="evenodd" d="M54.3522 46.2801C46.5782 64.5127 39.9976 93.712 55.9888 115.985C62.3649 124.881 74.4349 136.119 86.5051 139.888C101.542 144.573 116.578 139.616 119.783 138.971C111.975 145.082 106.281 147.391 99.9731 150.277C77.8105 155.302 55.8866 141.721 44.3619 122.198C32.6328 102.404 30.962 71.7104 41.191 53.8852C41.7025 53.0027 54.7954 45.2955 54.3522 46.2801Z" fill="#7D5749"/>
<path fill-rule="evenodd" clip-rule="evenodd" d="M43.9184 62.9169C32.9053 55.3454 22.3354 34.8719 21.5171 20.7136C20.9034 9.95066 27.2453 0.613518 35.5648 5.06138C49.5784 12.531 52.3403 47.8758 50.1921 61.4229C48.7601 62.6453 46.7143 63.2225 43.9184 62.9169Z" fill="#CAEAED"/>
<path fill-rule="evenodd" clip-rule="evenodd" d="M35.2922 70.726C24.4837 69.6055 8.93578 59.0803 2.83246 49.3019C-1.8046 41.8663 -0.918099 32.7329 6.7535 32.6651C19.6419 32.5972 35.4626 56.7375 39.1792 67.2289C38.6678 68.6549 37.4404 69.8771 35.2922 70.726Z" fill="#CAEAED"/>
<path fill-rule="evenodd" clip-rule="evenodd" d="M58.2732 86.7176C58.546 85.9706 64.4788 93.4063 71.5366 93.5081C77.64 93.576 81.9701 83.7297 83.5044 84.3069C85.4138 85.0539 80.2994 95.3416 71.6048 96.1224C62.1601 97.0053 57.9664 87.6004 58.2732 86.7176Z" fill="#654337"/>
<path fill-rule="evenodd" clip-rule="evenodd" d="M79.0381 91.9463C79.1745 92.2519 80.4701 96.5639 82.0386 97.0732C84.5618 97.8882 83.0274 92.6255 80.743 91.4371C80.1632 91.1315 79.72 90.9957 79.0381 91.9463Z" fill="#654337"/>
<path fill-rule="evenodd" clip-rule="evenodd" d="M73.6506 94.0514C73.6165 94.391 73.0027 98.8727 74.1621 100.129C76.0715 102.166 76.8898 96.7677 75.3555 94.5268C74.9802 93.9156 74.6394 93.5761 73.6506 94.0514Z" fill="#654337"/>
<path fill-rule="evenodd" clip-rule="evenodd" d="M66.286 94.3231C66.1836 94.6287 64.3083 98.8388 65.1948 100.027C66.661 101.997 68.9795 96.9035 67.9908 94.7645C67.718 94.2212 67.4794 93.8817 66.286 94.3231Z" fill="#654337"/>
<path fill-rule="evenodd" clip-rule="evenodd" d="M109.179 71.6086C109.247 70.8276 116.101 77.4145 122.306 76.4977C127.659 75.7168 129.228 65.3272 130.694 65.7008C132.535 66.1761 130.387 77.1089 122.954 79.1121C114.907 81.3191 109.111 72.5253 109.179 71.6086Z" fill="#654337"/>
<path fill-rule="evenodd" clip-rule="evenodd" d="M128.512 73.9175C128.682 74.1891 130.83 78.3314 132.296 78.603C134.683 79.0783 132.16 74.0533 129.91 73.1705C129.296 72.9327 128.887 72.8649 128.512 73.9175Z" fill="#654337"/>
<path fill-rule="evenodd" clip-rule="evenodd" d="M124.284 76.7695C124.318 77.1091 124.795 81.6586 126.125 82.7452C128.239 84.5107 127.727 79.0104 125.886 76.9731C125.409 76.4639 125.034 76.1583 124.284 76.7695Z" fill="#654337"/>
<path fill-rule="evenodd" clip-rule="evenodd" d="M117.908 78.0597C117.874 78.3993 117.192 82.847 118.249 83.8996C119.988 85.6652 120.84 80.2667 119.476 78.2634C119.135 77.7541 118.828 77.4487 117.908 78.0597Z" fill="#654337"/>
<path fill-rule="evenodd" clip-rule="evenodd" d="M67.3087 114.287C69.4567 119.754 78.4582 118.396 80.504 113.914C81.22 112.352 80.845 111.096 79.8221 109.873C78.8333 108.685 77.2308 107.531 74.6735 107.666C70.0022 107.938 66.1494 111.266 67.3087 114.287Z" fill="#FCDA7C"/>
<path fill-rule="evenodd" clip-rule="evenodd" d="M132.365 90.5203C134.001 94.6626 140.82 93.644 142.355 90.2147C142.9 89.0603 142.628 88.0757 141.877 87.1929C141.127 86.2762 139.866 85.3934 137.956 85.4954C134.41 85.699 131.478 88.2115 132.365 90.5203Z" fill="#FCDA7C"/>
<path fill-rule="evenodd" clip-rule="evenodd" d="M61.0009 156.015C19.8806 130.618 13.4364 93.61 24.6201 71.8802C10.9815 91.7766 11.9022 112.114 14.0502 122.606C15.0731 127.63 16.7779 132.282 19.301 135.983C30.9279 152.925 55.375 156.558 61.0009 156.015Z" fill="#7D5749"/>
<path fill-rule="evenodd" clip-rule="evenodd" d="M113.1 45.8726C113.475 49.9809 121.079 48.8944 123.363 46.2462C124.147 45.3294 124.147 44.3788 123.704 43.3602C123.261 42.3756 122.374 41.2551 120.635 40.8477C118.521 40.3723 112.827 42.9187 113.1 45.8726Z" fill="#F8BBA6"/>
<path fill-rule="evenodd" clip-rule="evenodd" d="M56.0909 62.2038C57.7276 66.0065 64.6491 62.6791 66.0129 59.4536C66.4903 58.3332 66.1834 57.4505 65.4674 56.6017C64.7173 55.7868 63.558 55.0059 61.7509 55.1417C59.6027 55.3113 54.9656 59.4875 56.0909 62.2038Z" fill="#F8BBA6"/>
<path fill-rule="evenodd" clip-rule="evenodd" d="M60.8647 137.002C59.5008 138.631 57.1141 143.826 53.4999 147.187C50.3629 150.175 46.1009 151.466 43.3732 151.432C39.3158 151.398 38.3952 154.148 38.5998 154.623C38.7703 154.997 40.3728 153.74 41.6685 153.367C41.7026 153.333 38.5315 160.802 43.8506 154.216C43.646 156.762 43.8506 161.278 45.76 154.216C59.2622 150.617 61.2057 141.653 63.2174 137.783C63.4901 137.273 61.0011 136.832 60.8647 137.002Z" fill="#654337"/>
<path fill-rule="evenodd" clip-rule="evenodd" d="M33.6216 139.175C32.2236 139.922 29.121 142.774 25.7113 144.064C22.7109 145.184 19.4376 144.913 17.5623 144.098C14.8346 142.909 13.4025 144.539 13.4366 144.947C13.4366 145.218 14.9028 144.811 15.8575 144.913C15.8917 144.913 11.5955 149.123 17.119 146.135C16.2325 147.833 15.1074 150.956 18.4147 146.678C28.6436 148.036 32.5646 142.468 35.0197 140.397C35.3605 140.125 33.792 139.107 33.6216 139.175Z" fill="#654337"/>
<path fill-rule="evenodd" clip-rule="evenodd" d="M144.128 93.4403C145.628 100.435 143.957 98.9407 136.763 98.8728C129.978 98.8388 126.636 100.197 127.114 101.895C127.489 103.354 126.977 99.8574 132.262 101.555C132.399 101.351 127.727 103.185 127.659 104.645C127.523 106.852 129.841 104.203 133.115 103.728C131.41 105.527 131.307 108.889 132.262 108.923C132.808 108.923 132.671 107.157 134.444 104.475C136.149 101.996 140.036 103.558 143.514 103.728C158.175 104.305 143.275 89.4678 144.128 93.4403Z" fill="#654337"/>
<path fill-rule="evenodd" clip-rule="evenodd" d="M78.5606 123.76C84.3571 127.936 93.3243 124.711 99.8709 121.689C106.042 118.837 109.622 118.701 109.929 120.467C110.168 121.961 109.179 118.565 105.088 122.266C104.883 122.164 109.861 121.893 110.543 123.183C111.566 125.152 108.77 123.047 105.599 123.964C109.213 125.458 111.805 130.449 104.303 125.865C97.757 121.859 92.0969 136.56 78.6971 130.347C76.5831 129.362 78.0151 123.353 78.5606 123.76Z" fill="#654337"/>
</svg>
