<svg width="214" height="166" viewBox="0 0 214 166" fill="none" xmlns="http://www.w3.org/2000/svg">
<path fill-rule="evenodd" clip-rule="evenodd" d="M136.392 55.6791C132.262 44.86 134.839 25.036 141.248 14.4809C146.138 6.46554 155.257 2.90326 159.023 10.1929C165.301 22.3973 149.838 49.0491 141.612 57.6912C139.993 57.8561 138.242 57.2624 136.392 55.6791Z" fill="#CAE8EB"/>
<path fill-rule="evenodd" clip-rule="evenodd" d="M132.757 57.955C124.795 47.9276 120.863 26.1905 124.101 12.9636C126.579 2.90326 135.037 -3.92467 141.413 2.50737C152.118 13.2604 144.717 46.5092 138.936 58.3178C137.284 59.0435 135.235 59.0105 132.757 57.955Z" fill="#BFDDE0"/>
<path fill-rule="evenodd" clip-rule="evenodd" d="M153.605 63.0016C158.098 52.3146 173.692 39.7472 185.586 36.5807C194.672 34.1398 203.758 37.8672 201.445 45.7176C197.546 58.8785 167.911 67.4876 156.017 68.0483C154.695 67.0588 153.869 65.4426 153.605 63.0016Z" fill="#BFDDE0"/>
<path fill-rule="evenodd" clip-rule="evenodd" d="M145.675 59.3403C144.882 46.5752 154.1 26.4874 164.342 17.4824C172.106 10.6215 182.943 9.82996 184.496 18.7359C187.139 33.6781 162.063 56.7674 150.532 63.1665C148.781 62.8368 147.129 61.6492 145.675 59.3403Z" fill="#ACCCCF"/>
<path fill-rule="evenodd" clip-rule="evenodd" d="M57.7593 106.971C57.7593 144.672 81.5802 159.648 117.229 164.694C219.253 179.109 222.986 69.8296 138.374 51.556C97.7031 42.7821 57.7593 53.3702 57.7593 106.971Z" fill="#FBBD6A"/>
<path fill-rule="evenodd" clip-rule="evenodd" d="M82.142 86.4209C83.6287 84.3759 85.6111 88.9937 88.1551 88.9937C90.9964 88.9937 93.0779 84.6397 94.102 86.091C95.2254 87.6743 92.5161 91.1377 88.6176 91.5004C84.1575 91.8965 81.0847 87.8063 82.142 86.4209Z" fill="#654337"/>
<path fill-rule="evenodd" clip-rule="evenodd" d="M68.9265 73.5898C80.7213 75.7998 79.6972 89.6204 70.8428 93.3477C64.6976 95.9205 57.1978 93.2159 56.7352 85.5633C56.2726 77.6799 60.4024 71.9405 68.9265 73.5898Z" fill="#FCF0E0"/>
<path fill-rule="evenodd" clip-rule="evenodd" d="M69.1249 73.7219C79.0034 76.0637 78.3427 89.4557 70.4795 93.15C68.1999 94.2385 66.3497 94.0735 64.4334 92.7872C62.4841 91.5007 60.5678 89.2579 60.4357 85.5305C60.1383 78.6036 64.4334 72.6333 69.1249 73.7219Z" fill="#654337"/>
<path fill-rule="evenodd" clip-rule="evenodd" d="M69.3892 76.7894C70.9751 75.437 73.4199 78.5706 72.8914 80.2528C72.7261 80.8465 72.3297 81.0774 71.768 81.1434C71.2064 81.2093 70.5457 81.0114 69.8188 80.4176C68.4971 79.3293 68.6623 77.4161 69.3892 76.7894Z" fill="#FEFEFE"/>
<path fill-rule="evenodd" clip-rule="evenodd" d="M121.458 82.2319C135.037 84.8047 133.88 100.703 123.638 105.024C116.601 107.993 107.945 104.86 107.416 96.0526C106.888 86.9487 111.612 80.3519 121.458 82.2319Z" fill="#FCF0E0"/>
<path fill-rule="evenodd" clip-rule="evenodd" d="M121.689 82.3967C133.055 85.0685 132.328 100.505 123.275 104.793C120.632 106.014 118.518 105.816 116.271 104.365C114.057 102.847 111.844 100.307 111.679 95.9864C111.315 88.0371 116.304 81.1103 121.689 82.3967Z" fill="#654337"/>
<path fill-rule="evenodd" clip-rule="evenodd" d="M121.987 85.9262C123.837 84.3428 126.645 87.9712 126.051 89.9173C125.852 90.61 125.357 90.8738 124.729 90.9397C124.068 91.0057 123.341 90.8078 122.482 90.0821C120.963 88.8288 121.161 86.6517 121.987 85.9262Z" fill="#FEFEFE"/>
<path fill-rule="evenodd" clip-rule="evenodd" d="M124.597 49.3458C139.53 61.1544 156.743 83.2543 149.145 109.477C146.105 119.934 138.242 135.008 127.471 143.782C114.057 154.7 97.3068 158.262 93.8376 159.219C103.815 162.187 108.11 163.144 115.28 164.43C139.695 158.427 159.188 131.215 163.351 109.378C167.58 87.2126 156.843 62.177 139.563 51.8197C138.704 51.3249 123.771 48.7192 124.597 49.3458Z" fill="#654337"/>
<path fill-rule="evenodd" clip-rule="evenodd" d="M167.943 63.9584C197.546 122.177 170.124 148.433 141.876 165.783C177.723 164.233 190.773 143.65 195.729 129.961C208.912 93.5458 176.302 67.9495 167.943 63.9584Z" fill="#7D5749"/>
<path fill-rule="evenodd" clip-rule="evenodd" d="M205.839 124.651C203.361 125.013 199.396 124.288 196.786 123.826C196.324 121.385 197.315 116.569 198.273 117.196C200.883 118.977 211.984 123.826 205.839 124.651Z" fill="#654337"/>
<path fill-rule="evenodd" clip-rule="evenodd" d="M126.249 108.422C131.931 109.279 131.568 114.293 127.042 115.679C125.72 116.074 124.663 116.008 123.539 115.514C122.449 115.052 121.326 114.194 121.227 112.809C121.062 110.236 123.539 107.993 126.249 108.422Z" fill="#F7A37F"/>
<path fill-rule="evenodd" clip-rule="evenodd" d="M58.288 97.7677C63.9706 98.6253 63.6072 103.639 59.081 105.024C57.7594 105.42 56.7021 105.354 55.5788 104.859C54.4555 104.398 53.3652 103.573 53.2661 102.155C53.1009 99.582 55.5788 97.339 58.288 97.7677Z" fill="#F7A37F"/>
<path fill-rule="evenodd" clip-rule="evenodd" d="M79.3668 140.285C70.6447 139.461 69.7525 143.122 69.6534 146.553C69.5874 148.796 69.3231 151.269 69.4552 151.236C70.2811 150.94 73.9484 150.313 75.8317 149.521C81.184 147.278 80.5563 140.417 79.3668 140.285Z" fill="#949553"/>
<path fill-rule="evenodd" clip-rule="evenodd" d="M96.1171 133.655C86.0734 133.688 73.5847 143.848 72.8579 147.344C74.4108 146.058 78.5735 141.506 84.4214 138.438C90.5336 135.272 96.9761 135.107 97.1084 134.348C97.3727 132.699 97.4387 134.546 96.1171 133.655Z" fill="#ABAC60"/>
<path fill-rule="evenodd" clip-rule="evenodd" d="M19.5005 128.906C15.5028 127.652 9.58879 128.774 6.08675 131.544C6.0207 130.258 1.26314 128.18 0.404139 132.831C0.238894 133.821 0.338089 135.503 1.56047 136.162C3.34452 137.119 6.45027 136.426 6.18595 132.534C6.15293 132.072 12.7607 128.609 17.0887 129.829C21.7139 131.116 18.5753 130.126 19.5005 128.906Z" fill="#FBBD6A"/>
<path fill-rule="evenodd" clip-rule="evenodd" d="M17.5843 136.459C13.3884 136.36 7.93693 139.065 5.19482 142.726C4.83143 141.506 -0.223477 140.78 0.0076896 145.497C0.0737373 146.519 0.569348 148.136 1.92395 148.433C3.84022 148.861 6.71455 147.344 5.52519 143.65C5.39309 143.188 10.9766 138.042 15.4699 138.009C20.2273 137.976 16.9565 137.877 17.5843 136.459Z" fill="#FBBD6A"/>
<path fill-rule="evenodd" clip-rule="evenodd" d="M26.0421 140.945C21.8461 140.846 16.3947 143.551 13.6526 147.212C13.2892 145.992 8.23429 145.266 8.46545 149.983C8.5315 151.005 9.02711 152.622 10.3817 152.919C12.298 153.347 15.1723 151.83 13.9829 148.136C13.8509 147.674 19.4344 142.528 23.9277 142.495C28.6851 142.462 25.4144 142.396 26.0421 140.945Z" fill="#FBBD6A"/>
<path fill-rule="evenodd" clip-rule="evenodd" d="M33.1454 127.388C31.3943 119.34 14.5776 113.238 8.39938 117.823C3.97217 121.121 9.22535 134.051 21.1854 129.4C25.7777 127.619 31.0639 128.213 33.1454 127.388Z" fill="#F8BBA6"/>
<path fill-rule="evenodd" clip-rule="evenodd" d="M34.1698 133.622C29.8086 126.86 12.0999 127.883 7.93703 134.612C4.93048 139.428 14.1813 149.356 23.7296 140.252C27.3969 136.789 32.5178 135.206 34.1698 133.622Z" fill="#F7A37F"/>
<path fill-rule="evenodd" clip-rule="evenodd" d="M35.5243 137.647C28.3549 134.909 14.5117 146.915 14.7099 155.03C14.8751 160.868 27.7272 163.078 30.6015 149.653C31.7248 144.507 35.0287 139.989 35.5243 137.647Z" fill="#F8BBA6"/>
<path fill-rule="evenodd" clip-rule="evenodd" d="M45.9644 128.774C41.7025 125.079 36.5814 124.486 31.5595 123.166C27.4627 122.078 32.9141 142.693 34.3018 142.265C39.2246 140.879 41.7025 140.351 46.7244 131.413C56.9004 125.673 73.651 127.619 97.4058 136.36C107.152 139.956 116.007 145.332 123.54 151.203L125.423 147.41C122.152 145.068 118.551 142.693 114.454 140.219C85.2475 122.671 55.9422 122.639 45.9644 128.774Z" fill="#ABAC60"/>
<path fill-rule="evenodd" clip-rule="evenodd" d="M57.363 114.062C50.0944 118.251 42.099 124.42 43.0572 128.411C44.7092 135.569 43.2225 124.123 46.9558 124.816C46.9558 143.023 49.0372 125.475 49.3015 125.079C49.6319 124.486 51.7134 125.211 54.5877 130.093C55.0833 130.951 55.7771 128.477 51.2178 123.925C49.9954 122.705 53.4314 120.692 58.6515 118.68C58.1889 115.613 58.4202 117.46 57.363 114.062Z" fill="#654337"/>
<path fill-rule="evenodd" clip-rule="evenodd" d="M118.947 127.916C115.511 126.036 89.9062 127.619 88.4856 134.183C86.8997 141.374 90.5009 130.39 93.5735 132.6C85.7433 149.026 95.1594 134.117 95.5558 133.853C96.1175 133.491 97.6704 135.008 98.1658 140.648C98.2649 141.638 99.9499 139.725 97.8025 133.655C96.8444 130.951 108.309 131.775 119.046 133.787C119.146 133.161 119.509 128.213 118.947 127.916Z" fill="#654337"/>
<path fill-rule="evenodd" clip-rule="evenodd" d="M69.0256 55.7449C74.7082 56.6025 74.3118 61.6162 69.7855 63.0016C68.4969 63.3973 67.4398 63.3314 66.3163 62.8366C65.193 62.3748 64.1027 61.5501 64.0037 60.1318C63.8385 57.5591 66.3163 55.3162 69.0256 55.7449Z" fill="#654337"/>
<path fill-rule="evenodd" clip-rule="evenodd" d="M122.053 62.3091C127.736 63.1997 127.372 68.1804 122.846 69.5658C121.524 69.9617 120.467 69.8956 119.344 69.4339C118.253 68.9391 117.13 68.1145 117.031 66.7291C116.866 64.1562 119.344 61.9132 122.053 62.3091Z" fill="#654337"/>
<path fill-rule="evenodd" clip-rule="evenodd" d="M97.1745 36.5478C97.9675 28.4665 89.0801 33.1504 90.699 36.8776C81.0516 42.485 76.7566 61.9791 79.5979 64.288C79.9283 64.5189 80.2917 64.5849 80.7873 64.3869C80.2917 61.8471 79.7962 49.8076 89.1461 40.209C89.9391 39.3843 90.8971 38.9226 91.9544 38.2628C93.6725 39.3846 96.9102 39.5165 97.1745 36.5478Z" fill="#654337"/>
<path fill-rule="evenodd" clip-rule="evenodd" d="M125.522 36.9766C126.315 28.8953 117.427 33.5792 119.046 37.3064C109.399 42.9139 105.104 62.4079 107.945 64.7168C108.275 64.9478 108.639 65.0137 109.134 64.8158C108.639 62.2759 108.143 50.2363 117.493 40.6378C118.286 39.8132 119.244 39.3513 120.302 38.6917C122.02 39.8133 125.257 39.9452 125.522 36.9766Z" fill="#654337"/>
<path fill-rule="evenodd" clip-rule="evenodd" d="M150.763 144.079C153.572 145.695 159.651 151.797 166.523 154.7C172.536 157.24 179.243 156.877 183.108 155.425C188.791 153.215 191.533 156.613 191.467 157.438C191.434 158.031 188.494 157.075 186.511 157.207C186.445 157.207 194.837 166.113 183.868 159.581C185.52 163.111 187.569 169.576 181.192 160.604C160.212 162.55 152.713 150.873 147.856 146.453C147.228 145.86 150.466 143.914 150.763 144.079Z" fill="#654337"/>
<path fill-rule="evenodd" clip-rule="evenodd" d="M187.965 129.202C190.046 131.016 190.146 132.204 192.657 133.458C197.778 135.997 203.526 135.635 206.83 134.15C211.687 131.973 214.033 135.371 214 136.162C213.967 136.789 211.423 135.832 209.738 135.964C209.672 135.964 216.841 144.837 207.491 138.306C208.879 141.836 210.663 148.301 205.178 139.329C196.159 140.318 190.047 137.844 185.686 134.579L187.965 129.202Z" fill="#654337"/>
</svg>
