<svg width="216" height="215" viewBox="0 0 216 215" fill="none" xmlns="http://www.w3.org/2000/svg">
<path fill-rule="evenodd" clip-rule="evenodd" d="M89.8335 82.9472C81.283 73.4387 76.032 52.0122 78.4417 38.6158C80.2531 28.4145 88.2041 21.0899 94.9718 27.0888C106.284 37.1313 101.028 70.7541 96.0056 82.9038C94.4122 83.7264 92.3849 83.8305 89.8335 82.9472Z" fill="#BFDDE0"/>
<path fill-rule="evenodd" clip-rule="evenodd" d="M76.4824 94.205C64.093 91.1756 47.6796 76.4365 42.1087 64.0473C37.8794 54.5845 40.3485 44.0328 49.3191 45.1896C64.3154 47.1201 78.8715 77.8376 81.5808 90.6965C80.7141 92.2929 79.0995 93.5229 76.4824 94.205Z" fill="#BFDDE0"/>
<path fill-rule="evenodd" clip-rule="evenodd" d="M83.4915 80.7324C58.7869 100.653 39.5661 134.936 62.1494 166.97C99.5308 220.04 221.733 160.433 176.943 91.7574C152.087 53.6509 112.25 57.5696 83.4915 80.7324Z" fill="#F7CA4F"/>
<path fill-rule="evenodd" clip-rule="evenodd" d="M123.685 92.6416C111.35 99.9012 118.071 115.055 129.516 115.659C137.429 116.113 144.764 110.014 142.227 101.206C139.569 92.1202 132.633 87.3455 123.685 92.6416Z" fill="#FCF0E0"/>
<path fill-rule="evenodd" clip-rule="evenodd" d="M127.637 91.1955C119.154 97.22 125.317 112.065 133.922 113.628C136.882 114.188 138.903 112.979 140.546 110.758C142.188 108.537 143.471 105.24 142.128 100.969C139.686 93.0868 132.302 87.8648 127.637 91.1955Z" fill="#654337"/>
<path fill-rule="evenodd" clip-rule="evenodd" d="M132.798 93.2216C130.467 94.0945 132.333 98.4569 134.436 98.8931C135.148 99.0418 135.619 98.7377 136.022 98.2061C136.404 97.6334 136.572 96.8576 136.336 95.7167C135.944 93.7353 133.891 92.7974 132.798 93.2216Z" fill="#FEFEFE"/>
<path fill-rule="evenodd" clip-rule="evenodd" d="M169.513 84.6599C159.702 90.416 165.026 102.489 174.136 102.964C180.432 103.303 186.278 98.4724 184.254 91.4763C182.13 84.2429 176.623 80.4221 169.513 84.6599Z" fill="#FCF0E0"/>
<path fill-rule="evenodd" clip-rule="evenodd" d="M172.618 83.5066C165.886 88.308 170.808 100.12 177.656 101.352C179.999 101.792 181.631 100.843 182.93 99.0691C184.23 97.2948 185.238 94.6728 184.176 91.2803C182.242 85.0012 176.353 80.8565 172.618 83.5066Z" fill="#654337"/>
<path fill-rule="evenodd" clip-rule="evenodd" d="M176.738 85.111C174.912 85.7937 176.392 89.2798 178.045 89.6128C178.621 89.7544 179.001 89.5258 179.313 89.0695C179.624 88.6132 179.744 87.995 179.567 87.1133C179.267 85.5049 177.604 84.7552 176.738 85.111Z" fill="#FEFEFE"/>
<path fill-rule="evenodd" clip-rule="evenodd" d="M152.046 97.4516C152.733 95.3176 155.739 98.6498 157.918 97.9373C160.335 97.1246 160.832 92.7956 162.126 93.7425C163.535 94.7594 162.221 98.4943 159.029 99.9314C155.332 101.559 151.552 98.9552 152.046 97.4516Z" fill="#654337"/>
<path fill-rule="evenodd" clip-rule="evenodd" d="M124.061 125.401C126.762 129.846 134.392 127.284 135.475 123.065C135.856 121.596 135.32 120.536 134.288 119.634C133.225 118.723 131.656 118.002 129.472 118.506C125.435 119.444 122.574 122.947 124.061 125.401Z" fill="#F7A37F"/>
<path fill-rule="evenodd" clip-rule="evenodd" d="M181.734 107.597C183.904 111.19 190.047 109.104 190.921 105.683C191.246 104.507 190.819 103.653 189.979 102.913C189.129 102.205 187.843 101.571 186.094 102.001C182.834 102.762 180.519 105.605 181.734 107.597Z" fill="#F7A37F"/>
<path fill-rule="evenodd" clip-rule="evenodd" d="M186.114 129.171C185.583 135.523 184.562 133.798 178.499 131.91C172.76 130.086 169.612 130.365 169.568 131.972C169.507 133.297 170.004 130.209 174.007 132.984C174.181 132.865 169.776 133.207 169.337 134.417C168.633 136.27 171.268 134.628 174.162 135.065C172.283 136.145 171.312 138.985 172.099 139.226C172.561 139.402 172.898 137.85 175.092 136.073C177.164 134.363 180.053 136.728 182.941 137.749C195.153 142.034 186.422 125.576 186.114 129.171Z" fill="#654337"/>
<path fill-rule="evenodd" clip-rule="evenodd" d="M54.0145 164.655C55.9752 163.531 56.7338 162.625 58.3455 160.843C57.2977 158.868 55.5279 154.19 55.2291 155.168C54.3593 157.901 49.2227 167.499 54.0145 164.655Z" fill="#654337"/>
<path fill-rule="evenodd" clip-rule="evenodd" d="M105.998 162.761C105.014 165.08 104.093 171.693 101.186 176.699C98.6706 181.1 94.3385 184.016 91.279 184.907C86.7513 186.212 86.6153 189.583 87.0538 190.062C87.3542 190.429 88.7116 188.466 90.0026 187.62C90.0533 187.566 89.0248 197.007 92.7563 187.841C93.3697 190.786 95.1157 195.767 94.875 187.213C108.781 178.642 107.935 167.904 108.894 162.854C109.024 162.204 106.075 162.509 105.998 162.761Z" fill="#654337"/>
<path fill-rule="evenodd" clip-rule="evenodd" d="M75.7607 158.687C74.921 160.533 74.3666 165.948 71.7682 169.945C69.5322 173.433 65.4314 175.592 62.4682 176.168C58.0851 177 58.1225 179.803 58.5803 180.219C58.9 180.524 60.132 178.97 61.3556 178.344C61.3966 178.322 60.8887 186.061 64.0708 178.692C64.8384 181.133 66.8156 185.357 66.1221 178.285C79.3536 171.92 77.9487 163.01 78.6186 158.906C78.7097 158.382 75.8282 158.467 75.7607 158.687Z" fill="#654337"/>
<path fill-rule="evenodd" clip-rule="evenodd" d="M182.186 46.1346C186.246 36.3449 173.386 38.7907 174.015 44.0501C159.855 47.3736 147.056 70.1069 149.744 74.0312C150.025 74.4619 150.478 74.6692 151.153 74.5998C151.519 71.2645 155.487 56.0349 170.792 47.6149C172.075 46.9043 173.454 46.6709 175.017 46.2869C176.733 48.3281 180.671 49.7391 182.186 46.1346Z" fill="#654337"/>
<path fill-rule="evenodd" clip-rule="evenodd" d="M133.759 40.2226C133.905 29.6156 122.867 36.6857 125.396 41.3542C113.515 49.7177 110.078 75.5892 114.057 78.219C114.449 78.5114 114.991 78.5391 115.576 78.2009C114.665 74.9922 112.69 59.3934 123.747 45.8484C124.645 44.7098 125.835 43.9704 127.155 43.0296C129.528 44.272 133.708 44.1024 133.759 40.2226Z" fill="#654337"/>
<path fill-rule="evenodd" clip-rule="evenodd" d="M180.551 145.567C162.977 152.742 137.586 157.803 118.527 138.325C110.924 130.554 101.717 116.329 99.3624 102.648C96.4688 85.6651 102.798 72.0535 103.66 68.5595C98.04 71.1848 93.5115 73.7301 87.1197 77.9808C80.3515 102.144 94.7549 136.4 111.669 150.74C128.868 165.272 154.395 167.871 171.818 157.927C172.69 157.435 181.499 145.168 180.551 145.567Z" fill="#7D5749"/>
<path fill-rule="evenodd" clip-rule="evenodd" d="M127.394 151.412C133.435 153.259 139.978 147.951 144.565 143.528C148.898 139.372 151.868 138.211 152.61 139.61C153.243 140.804 151.451 138.222 149.078 142.495C148.88 142.469 152.962 140.821 153.9 141.694C155.339 143.064 152.4 142.097 149.995 143.775C153.435 143.999 157.059 147.451 149.46 145.748C142.855 144.281 142.375 158.233 129.402 156.886C127.335 156.668 126.796 151.229 127.394 151.412Z" fill="#654337"/>
<path fill-rule="evenodd" clip-rule="evenodd" d="M151.473 174.389C133.9 181.564 111.275 174.199 91.4039 155.576C70.232 135.694 68.2357 110.712 72.9161 90.5639C65.7325 98.192 60.7207 106.932 58.8089 110.484C47.474 150.936 76.4163 179.502 119.241 186.183C127.319 187.446 152.421 173.989 151.473 174.389Z" fill="#7D5749"/>
<path fill-rule="evenodd" clip-rule="evenodd" d="M79.5178 93.6164C66.7752 94.4432 46.7106 85.3443 37.6753 75.1706C30.823 67.4223 30.0278 56.6309 38.9103 55.0376C53.8038 52.352 76.9008 77.3042 83.3126 88.7441C82.9811 90.5042 81.7831 92.1718 79.5178 93.6164Z" fill="#CAEAED"/>
<path fill-rule="evenodd" clip-rule="evenodd" d="M86.8127 85.85C75.5084 79.9464 63.1311 61.6844 60.7213 48.2965C58.8792 38.1158 63.8173 28.4913 72.2148 31.7481C86.3301 37.2356 93.0696 70.5616 92.5999 83.6895C91.3942 85.0445 89.5081 85.8123 86.8127 85.85Z" fill="#CAEAED"/>
</svg>
